inDegrees=yes
name=ik_tiny_file
DataType=double
version=3
OpenSimVersion=4.4-2022-07-23-0e9fedc
endheader
time	pelvis_tilt	pelvis_list	pelvis_rotation	pelvis_tx	pelvis_ty	pelvis_tz	hip_flexion_r	hip_adduction_r	hip_rotation_r	knee_angle_r	knee_angle_r_beta	ankle_angle_r	subtalar_angle_r	mtp_angle_r	hip_flexion_l	hip_adduction_l	hip_rotation_l	knee_angle_l	knee_angle_l_beta	ankle_angle_l	subtalar_angle_l	mtp_angle_l	lumbar_extension	lumbar_bending	lumbar_rotation	arm_flex_r	arm_add_r	arm_rot_r	elbow_flex_r	pro_sup_r	wrist_flex_r	wrist_dev_r	arm_flex_l	arm_add_l	arm_rot_l	elbow_flex_l	pro_sup_l	wrist_flex_l	wrist_dev_l
6.08	11.30094971038057	-1.820055621945832	0.1960072154015125	0	0.9399999999999999	0	44.25786498074282	-10.02239465511583	0	60.28626164000593	1.05219375933686	-4.99287515152154	0	0	44.25786498074282	-10.02239465511583	0	60.28626164000593	1.05219375933686	-4.99287515152154	0	0	-10.22757088306334	2.125918344725967	5.018033663356316	17.27613687138963	-7.128938982818301	-2.810031275658082	50.05875944709467	44.98663192123306	0	5.000762221404039	2.326705889793877	1.089201318985272	1.370430613224854	0.2047110805187765	44.98663192123306	0	5.000762221404039
6.1	11.34063815151393	-1.821758708220846	0.1753105945642038	0	0.9399999999999999	0	44.26339827449053	-10.02199004810868	0	60.28416584570108	1.052157180825796	-4.992942510363403	0	0	44.26339827449053	-10.02199004810868	0	60.28416584570108	1.052157180825796	-4.992942510363403	0	0	-10.38219605193399	2.102968296739776	4.908270082824129	17.22960381780759	-6.859452727538008	-3.173408181412915	54.25646536210133	44.98683751809375	0	5.00074198125865	2.463907792527072	1.077638673009311	1.277342191909832	0.2082096333158474	44.98683751809375	0	5.00074198125865
6.12	11.32257148154648	-1.80088622761832	0.1110760154672384	0	0.9399999999999999	0	44.26800355232818	-10.02164944694874	0	60.28243760514953	1.052127017337905	-4.992998717732721	0	0	44.26800355232818	-10.02164944694874	0	60.28243760514953	1.052127017337905	-4.992998717732721	0	0	-10.38161749507391	2.078775741406721	4.925551260206245	17.50742471391981	-6.708572070480479	-3.326859587275603	57.95877727106605	44.98701017137564	0	5.000724832746314	2.489289859727334	1.090796412826866	1.328695208318175	0.2093046468314881	44.98701017137564	0	5.000724832746314
6.14	11.30960893307753	-1.798039003887928	0.03854156346928091	0	0.9399999999999999	0	44.26828003650076	-10.02162090526018	0	60.2823538744472	1.052125555961464	-4.993002382438932	0	0	44.26828003650076	-10.02162090526018	0	60.2823538744472	1.052125555961464	-4.993002382438932	0	0	-10.4011108375116	2.063519283271812	4.987863036979761	18.10830413546413	-6.901891934584758	-3.175262607608485	60.9005408382349	44.98702372080445	0	5.000723139948152	2.516298017072268	1.157411827097759	1.473222228959627	0.205458777327452	44.98702372080445	0	5.000723139948152
6.16	11.34470094582659	-1.820103432216874	-0.00341322253963205	0	0.9399999999999999	0	44.26863039099398	-10.02158472775569	0	60.28224787577471	1.052123705935626	-4.993007027196398	0	0	44.26863039099398	-10.02158472775569	0	60.28224787577471	1.052123705935626	-4.993007027196398	0	0	-10.45107347630946	2.095852573597597	5.071503004496301	18.70987824879193	-7.063220318029731	-2.962108051277705	64.00445438166572	44.98704089637408	0	5.00072099555539	2.47774672267201	1.166053024305336	1.594769868626352	0.2125249140410107	44.98704089637408	0	5.00072099555539
6.18	11.24079280425348	-1.837353511737167	-0.07816994648752043	0	0.9399999999999999	0	44.26884052977724	-10.02156308972376	0	60.2821842010101	1.052122594601334	-4.99300981126597	0	0	44.26884052977724	-10.02156308972376	0	60.2821842010101	1.052122594601334	-4.99300981126597	0	0	-10.37606188145906	2.101428533270211	5.242370350529201	19.8153109946543	-7.24340971232444	-2.460747746674584	66.41798588138204	44.98705117549299	0	5.000719715296768	2.50132086118315	1.167118946129703	1.725789532399534	0.2185558361176925	44.98705117549299	0	5.000719715296768
6.2	11.20456926166783	-1.852091567045972	-0.1196643555782498	0	0.9399999999999999	0	44.26908845505773	-10.02153754781361	0	60.28210914622262	1.052121284648173	-4.99301309669589	0	0	44.26908845505773	-10.02153754781361	0	60.28210914622262	1.052121284648173	-4.99301309669589	0	0	-10.28990829935168	2.134098636901133	5.44919771998654	21.08557397987689	-7.624933536850306	-1.93707950724788	68.55709316629802	44.98706330908049	0	5.000718204494789	2.426618361260426	1.214042374263403	2.018919005021658	0.213876514605813	44.98706330908049	0	5.000718204494789
6.22	11.22943218291963	-1.89630918030298	-0.1458475657865515	0	0.9399999999999999	0	44.27210813428836	-10.0213159921326	0	60.28097088480528	1.052101418238692	-4.993049873482956	0	0	44.27210813428836	-10.0213159921326	0	60.28097088480528	1.052101418238692	-4.993049873482956	0	0	-10.31242599086238	2.218583575291114	5.739851704860196	22.3588289908975	-8.053880791570926	-1.427219915362392	71.15261172042322	44.98717577094639	0	5.00070707707159	2.386878459767126	1.283569018352333	2.403327172741772	0.2154240021616405	44.98717577094639	0	5.00070707707159
6.24	11.09853686935148	-1.893064222375093	-0.1734281770464761	0	0.9399999999999999	0	44.27232355784798	-10.02129395926517	0	60.28090564468708	1.052100279583825	-4.993052724407748	0	0	44.27232355784798	-10.02129395926517	0	60.28090564468708	1.052100279583825	-4.993052724407748	0	0	-10.13379088909857	2.17637331620887	6.123929793487562	23.91110559405393	-8.496900243192281	-0.5394183828198662	72.88055869333731	44.98718625737686	0	5.000705781946817	2.310759857166512	1.266868348180121	2.879594984377631	0.223264790978912	44.98718625737686	0	5.000705781946817
6.26	11.07373546036918	-1.956109756562554	-0.1692556394424684	0	0.9399999999999999	0	44.27284044994417	-10.02124098425241	0	60.28074949855478	1.052097554319702	-4.993059569790764	0	0	44.27284044994417	-10.02124098425241	0	60.28074949855478	1.052097554319702	-4.993059569790764	0	0	-10.09596193704606	2.279640630293453	6.63054340411551	25.2039282235376	-9.182866084554483	-0.1398425485670157	74.94425397592944	44.98721146492692	0	5.000702667946997	2.224272284370231	1.356721162429793	3.431793750608692	0.2231061147648236	44.98721146492692	0	5.000702667946997
6.28	11.02127176186267	-1.994475261282612	-0.1361684261144159	0	0.9399999999999999	0	44.27324157787842	-10.02119996075416	0	60.28062825619844	1.052095438241391	-4.993064880003347	0	0	44.27324157787842	-10.02119996075416	0	60.28062825619844	1.052095438241391	-4.993064880003347	0	0	-9.97058629794294	2.342007032986305	7.026801629115761	26.41288009697504	-9.770897579093704	0.4975011423720199	76.90142347985544	44.98723099645691	0	5.00070026118899	2.132522890556893	1.36201757600522	3.839861983380723	0.2283266423101316	44.98723099645691	0	5.00070026118899
6.3	10.95376416666522	-1.99765388059935	-0.09694346242257151	0	0.9399999999999999	0	44.27343492889982	-10.02118026764678	0	60.28056966616732	1.052094415652439	-4.993067437074548	0	0	44.27343492889982	-10.02118026764678	0	60.28056966616732	1.052094415652439	-4.993067437074548	0	0	-9.794440121106909	2.31066242828967	7.348490591730568	27.80313804025177	-10.24186133772919	1.201764683206753	78.5035045084783	44.98724038039645	0	5.000699108571121	2.012210429911145	1.359895895305657	4.174756575144455	0.2270025413261217	44.98724038039645	0	5.000699108571121
6.32	10.9322586966491	-2.029885766018469	-0.06497071932356302	0	0.9399999999999999	0	44.27388260113531	-10.02113456379973	0	60.2804343693746	1.052092054277938	-4.99307336209846	0	0	44.27388260113531	-10.02113456379973	0	60.2804343693746	1.052092054277938	-4.99307336209846	0	0	-9.759961741447032	2.392590986200092	7.788307075619527	29.23748766505289	-10.85238139673348	1.832111288179941	79.87912350097025	44.98726215227894	0	5.000696432934635	1.971041994089584	1.463146355239922	4.66274360271239	0.2180963127173642	44.98726215227894	0	5.000696432934635
6.34	10.88811696092103	-2.023363556456	-0.02425926999780882	0	0.9399999999999999	0	44.27427457679567	-10.02109463248427	0	60.28031582038425	1.052089985207732	-4.993078547782148	0	0	44.27427457679567	-10.02109463248427	0	60.28031582038425	1.052089985207732	-4.993078547782148	0	0	-9.775593138246439	2.336067533291375	8.283228173828544	30.21055214711802	-11.41066463875008	2.06475499042169	81.7182550444744	44.9872811847141	0	5.000694099539405	2.001585048921943	1.426539507791182	5.196294383594151	0.215937330741844	44.9872811847141	0	5.000694099539405
6.36	10.92345053206111	-2.050614015468098	0.02709393893603825	0	0.9399999999999999	0	44.27476484693947	-10.0210447404363	0	60.28016758249922	1.052087397968562	-4.993085033185306	0	0	44.27476484693947	-10.0210447404363	0	60.28016758249922	1.052087397968562	-4.993085033185306	0	0	-9.910570747017916	2.264401571394974	8.820580961245918	31.07116047852639	-11.88700674779018	2.145347880300436	83.68788184865949	44.98730497346495	0	5.000691188412245	2.046605383838195	1.391430523758309	5.795473229380872	0.220193820424006	44.98730497346495	0	5.000691188412245
6.38	10.92011147689633	-2.061209869585912	0.1139572636135012	0	0.9399999999999999	0	44.27500198328163	-10.02102071332573	0	60.28009569815609	1.052086143350094	-4.993088166834635	0	0	44.27500198328163	-10.02102071332573	0	60.28009569815609	1.052086143350094	-4.993088166834635	0	0	-10.04103086267363	2.193453632335266	9.18588173941875	31.91511433729499	-12.3957361978923	2.40874144212745	85.60522932506767	44.98731644026201	0	5.000689790179784	2.145890056942961	1.36875032215984	6.145555723247025	0.2247729845585122	44.98731644026201	0	5.000689790179784
6.4	10.92715861736094	-2.091141961373706	0.1611336152796184	0	0.9399999999999999	0	44.27539511680781	-10.02098080725709	0	60.27997678862793	1.052084067987315	-4.993093365148071	0	0	44.27539511680781	-10.02098080725709	0	60.27997678862793	1.052084067987315	-4.993093365148071	0	0	-10.08244383738696	2.219302621306796	9.546687028515366	32.74783985323091	-12.94395868249503	2.856460574070993	87.20933346385526	44.98733548132783	0	5.00068746779322	2.167452676585595	1.397836610652386	6.396959993478164	0.2230610802947473	44.98733548132783	0	5.00068746779322
6.42	10.7966150841729	-2.054564282259971	0.1849320909783335	0	0.9399999999999999	0	44.27562965525193	-10.0209570831798	0	60.27990570627621	1.052082827366238	-4.993096463843578	0	0	44.27562965525193	-10.0209570831798	0	60.27990570627621	1.052082827366238	-4.993096463843578	0	0	-9.925063795668272	2.175864212532816	9.766980921075589	33.45791391837685	-13.56924127227977	3.334053039138341	89.10160772715955	44.98734680970898	0	5.000686090154386	2.15699787205999	1.399215426607535	6.49275968808277	0.2164081824349978	44.98734680970898	0	5.000686090154386
6.44	10.83313024794373	-2.063558857110795	0.2489161178565759	0	0.9399999999999999	0	44.27586815094042	-10.02093300218764	0	60.27983336310543	1.052081564739716	-4.993099613581727	0	0	44.27586815094042	-10.02093300218764	0	60.27983336310543	1.052081564739716	-4.993099613581727	0	0	-9.961316303001874	2.20312842121094	9.974634510798907	33.80133661317917	-14.00634090267408	3.715172569400785	91.23761596085865	44.98735831328116	0	5.000684693598614	2.133871919579612	1.402451903215288	6.665873932866867	0.2176013917512307	44.98735831328116	0	5.000684693598614
6.46	10.80383524727699	-2.105933570776726	0.3246375486656244	0	0.9399999999999999	0	44.2764391192727	-10.02087520568677	0	60.279660687258	1.05207855097764	-4.993107160575716	0	0	44.2764391192727	-10.02087520568677	0	60.279660687258	1.05207855097764	-4.993107160575716	0	0	-9.782144120207178	2.371818563009819	10.12131413496271	34.02111006456602	-14.58048268079234	4.137299043248393	93.13935618183139	44.98738591488753	0	5.000681341374737	1.90175905864593	1.494801898133091	6.776027573108341	0.2172481841136547	44.98738591488753	0	5.000681341374737
6.48	10.72663158149417	-2.088369169112715	0.38312169390778	0	0.9399999999999999	0	44.27668615431653	-10.02085031332235	0	60.27958577896174	1.052077243581233	-4.993110422337386	0	0	44.27668615431653	-10.02085031332235	0	60.27958577896174	1.052077243581233	-4.993110422337386	0	0	-9.660404790430293	2.409704302714522	10.11921041348226	34.40293580459652	-15.02844650838726	4.637638019870335	94.79535347875014	44.98739781415876	0	5.000679901655351	1.879153745370031	1.509835695123467	6.618651913365158	0.2114672807670756	44.98739781415876	0	5.000679901655351
